<svg width="987" height="474" viewBox="0 0 987 474" fill="none" xmlns="http://www.w3.org/2000/svg">
<path d="M493.123 0.5C629.237 0.5 752.441 26.9678 841.598 69.7373C930.79 112.524 985.746 171.537 985.746 236.558C985.746 301.579 930.79 360.591 841.598 403.378C752.441 446.147 629.237 472.615 493.123 472.615C357.009 472.615 233.805 446.147 144.648 403.378C55.456 360.591 0.500138 301.579 0.5 236.558C0.5 171.537 55.456 112.524 144.648 69.7373C233.805 26.9678 357.009 0.5 493.123 0.5Z" stroke="#DEA923" stroke-opacity="0.37"/>
<path d="M493.123 36.8438C629.242 36.8438 752.451 61.279 841.611 100.765C886.192 120.508 922.239 144.004 947.133 170.069C972.024 196.132 985.746 224.74 985.746 254.729C985.746 284.719 972.025 313.327 947.133 339.39C922.239 365.455 886.192 388.951 841.611 408.694C752.451 448.18 629.242 472.615 493.123 472.615C357.004 472.615 233.795 448.18 144.635 408.694C100.054 388.951 64.0075 365.455 39.1133 339.39C14.2216 313.327 0.500074 284.719 0.5 254.729C0.5 224.74 14.2217 196.132 39.1133 170.069C64.0075 144.004 100.054 120.508 144.635 100.765C233.795 61.279 357.004 36.8438 493.123 36.8438Z" stroke="#DEA923" stroke-opacity="0.37"/>
<path d="M493.123 77.6704C629.247 77.6704 752.462 99.822 841.627 135.619C886.211 153.518 922.257 174.819 947.149 198.446C972.04 222.072 985.746 247.99 985.746 275.143C985.746 302.296 972.04 328.214 947.149 351.839C922.257 375.466 886.211 396.768 841.627 414.667C752.462 450.463 629.247 472.615 493.123 472.615C356.999 472.615 233.784 450.463 144.619 414.667C100.035 396.768 63.9889 375.466 39.0967 351.839C14.2057 328.214 0.500164 302.296 0.5 275.143C0.5 247.99 14.2056 222.072 39.0967 198.446C63.9889 174.819 100.035 153.518 144.619 135.619C233.784 99.822 356.999 77.6704 493.123 77.6704Z" stroke="#DEA923" stroke-opacity="0.37"/>
<path d="M493.123 118.498C629.253 118.498 752.474 138.367 841.645 170.474C886.232 186.529 922.279 205.633 947.17 226.823C972.063 248.014 985.746 271.243 985.746 295.556C985.746 319.869 972.063 343.098 947.17 364.29C922.279 385.479 886.232 404.584 841.645 420.638C752.474 452.746 629.253 472.615 493.123 472.615C356.993 472.615 233.772 452.746 144.602 420.638C100.014 404.584 63.9671 385.479 39.0762 364.29C14.1832 343.098 0.5 319.869 0.5 295.556C0.5 271.243 14.1832 248.014 39.0762 226.823C63.9671 205.633 100.014 186.529 144.602 170.474C233.772 138.367 356.993 118.498 493.123 118.498Z" stroke="#DEA923" stroke-opacity="0.37"/>
<path d="M493.123 165.299C629.259 165.299 752.487 182.55 841.664 210.428C886.256 224.368 922.306 240.957 947.197 259.354C972.098 277.758 985.746 297.906 985.746 318.958C985.746 340.009 972.098 360.156 947.197 378.56C922.306 396.957 886.256 413.546 841.664 427.486C752.487 455.364 629.259 472.615 493.123 472.615C356.987 472.615 233.759 455.364 144.582 427.486C99.9904 413.546 63.9398 396.957 39.0488 378.56C14.1485 360.156 0.500211 340.009 0.5 318.958C0.5 297.906 14.1483 277.758 39.0488 259.354C63.9398 240.957 99.9904 224.368 144.582 210.428C233.759 182.55 356.987 165.299 493.123 165.299Z" stroke="#DEA923" stroke-opacity="0.37"/>
<path d="M493.123 208.118C629.264 208.118 752.499 222.974 841.684 246.982C886.279 258.988 922.333 273.273 947.226 289.116C972.142 304.974 985.746 322.305 985.746 340.366C985.746 358.427 972.142 375.758 947.226 391.616C922.333 407.459 886.279 421.746 841.684 433.751C752.499 457.759 629.264 472.615 493.123 472.615C356.982 472.615 233.747 457.759 144.562 433.751C99.9667 421.746 63.9132 407.459 39.0205 391.616C14.104 375.758 0.5 358.427 0.5 340.366C0.500123 322.305 14.1041 304.974 39.0205 289.116C63.9131 273.273 99.9668 258.988 144.562 246.982C233.747 222.974 356.982 208.118 493.123 208.118Z" stroke="#DEA923" stroke-opacity="0.37"/>
<path d="M493.123 248.945C629.269 248.945 752.512 261.516 841.703 281.834C886.303 291.994 922.361 304.086 947.257 317.495C959.705 324.199 969.339 331.22 975.855 338.474C982.369 345.725 985.746 353.183 985.746 360.78C985.746 368.376 982.369 375.834 975.855 383.085C969.339 390.34 959.705 397.36 947.257 404.065C922.361 417.474 886.303 429.565 841.703 439.725C752.512 460.043 629.269 472.615 493.123 472.615C356.977 472.615 233.735 460.043 144.543 439.725C99.9434 429.565 63.8853 417.474 38.9893 404.065C26.541 397.36 16.9069 390.34 10.3906 383.085C3.87696 375.834 0.5 368.376 0.5 360.78C0.5 353.183 3.87696 345.725 10.3906 338.474C16.9069 331.22 26.541 324.199 38.9893 317.495C63.8853 304.086 99.9434 291.994 144.543 281.834C233.735 261.516 356.977 248.945 493.123 248.945Z" stroke="#DEA923" stroke-opacity="0.37"/>
<path d="M493.123 291.764C629.274 291.764 752.523 301.939 841.723 318.387C886.326 326.611 922.392 336.399 947.294 347.255C959.747 352.684 969.38 358.368 975.893 364.236C982.406 370.106 985.746 376.11 985.746 382.189C985.746 388.269 982.406 394.273 975.893 400.143C969.38 406.011 959.747 411.694 947.294 417.123C922.392 427.979 886.326 437.767 841.723 445.991C752.523 462.438 629.274 472.615 493.123 472.615C356.972 472.615 233.723 462.438 144.523 445.991C99.9196 437.767 63.8544 427.979 38.9521 417.123C26.4994 411.694 16.8659 406.011 10.3535 400.143C3.83973 394.273 0.500089 388.269 0.5 382.189C0.5 376.11 3.83964 370.106 10.3535 364.236C16.8659 358.368 26.4992 352.684 38.9521 347.255C63.8544 336.399 99.9197 326.611 144.523 318.387C233.723 301.939 356.972 291.764 493.123 291.764Z" stroke="#DEA923" stroke-opacity="0.37"/>
<path d="M493.123 330.599C629.279 330.599 752.535 338.603 841.742 351.539C886.35 358.007 922.422 365.705 947.332 374.246C959.79 378.517 969.426 382.989 975.938 387.604C982.467 392.231 985.746 396.92 985.746 401.607C985.746 406.294 982.467 410.983 975.938 415.61C969.426 420.225 959.79 424.697 947.332 428.968C922.422 437.508 886.35 445.207 841.742 451.675C752.535 464.611 629.279 472.615 493.123 472.615C356.967 472.615 233.711 464.611 144.504 451.675C99.8966 445.207 63.824 437.508 38.9141 428.968C26.4559 424.697 16.8197 420.225 10.3076 415.61C3.77892 410.983 0.5 406.294 0.5 401.607C0.5 396.92 3.77892 392.231 10.3076 387.604C16.8197 382.989 26.4559 378.517 38.9141 374.246C63.824 365.705 99.8966 358.007 144.504 351.539C233.711 338.603 356.967 330.599 493.123 330.599Z" stroke="#DEA923" stroke-opacity="0.37"/>
</svg>
