<svg width="24" height="24" viewBox="0 0 24 24" fill="none" xmlns="http://www.w3.org/2000/svg">
<path d="M10 13.5C10 14.3284 9.32843 15 8.5 15C7.67157 15 7 14.3284 7 13.5C7 12.6716 7.67157 12 8.5 12C9.32843 12 10 12.6716 10 13.5Z" fill="#D9D9D9"/>
<path d="M10 13.5C10 14.3284 9.32843 15 8.5 15C7.67157 15 7 14.3284 7 13.5C7 12.6716 7.67157 12 8.5 12C9.32843 12 10 12.6716 10 13.5Z" fill="url(#paint0_linear_4243_6148)"/>
<path d="M17 13.5C17 14.3284 16.3284 15 15.5 15C14.6716 15 14 14.3284 14 13.5C14 12.6716 14.6716 12 15.5 12C16.3284 12 17 12.6716 17 13.5Z" fill="#D9D9D9"/>
<path d="M17 13.5C17 14.3284 16.3284 15 15.5 15C14.6716 15 14 14.3284 14 13.5C14 12.6716 14.6716 12 15.5 12C16.3284 12 17 12.6716 17 13.5Z" fill="url(#paint1_linear_4243_6148)"/>
<path d="M3.27533 4.98146C3.83774 4.58135 4.61823 4.71306 5.0185 5.2754L6.36241 7.16301C6.64881 7.56527 7.18377 7.69242 7.64114 7.50625C8.84736 7.01527 10.1805 6.75001 11.9999 6.75001C13.8217 6.75001 15.1508 7.0271 16.3495 7.52255C16.8072 7.71176 17.3444 7.58514 17.6316 7.18162L18.9726 5.29787C19.3728 4.73556 20.1534 4.60392 20.7158 5.00392C21.2781 5.40417 21.4098 6.18468 21.0097 6.74708L19.8137 8.42667C19.5014 8.86533 19.5957 9.46945 19.9961 9.8295C21.6692 11.3339 22.9883 13.3531 23.5058 15.7754C23.9419 17.8168 22.1924 19.2725 20.4912 19.2725H3.49994C1.79815 19.2725 0.0506189 17.817 0.485294 15.7764C1.00222 13.3497 2.32132 11.3196 3.99684 9.809C4.39638 9.4488 4.49037 8.84542 4.17851 8.40712L2.98139 6.72462C2.58128 6.16222 2.71299 5.38173 3.27533 4.98146ZM11.9999 9.25001C9.74996 9.25001 8.55593 9.70826 7.14057 10.5684C5.11325 11.8004 3.45902 13.812 2.92963 16.2969C2.90732 16.4016 2.93104 16.4899 3.01557 16.5801C3.11262 16.6834 3.28527 16.7725 3.49994 16.7725H20.4912C20.7061 16.7725 20.8795 16.6835 20.9765 16.5801C21.0608 16.4901 21.0828 16.4022 21.0605 16.2979C20.5315 13.8219 18.8805 11.8245 16.8505 10.5908C15.4248 9.7244 14.2389 9.25001 11.9999 9.25001Z" fill="#D9D9D9"/>
<path d="M3.27533 4.98146C3.83774 4.58135 4.61823 4.71306 5.0185 5.2754L6.36241 7.16301C6.64881 7.56527 7.18377 7.69242 7.64114 7.50625C8.84736 7.01527 10.1805 6.75001 11.9999 6.75001C13.8217 6.75001 15.1508 7.0271 16.3495 7.52255C16.8072 7.71176 17.3444 7.58514 17.6316 7.18162L18.9726 5.29787C19.3728 4.73556 20.1534 4.60392 20.7158 5.00392C21.2781 5.40417 21.4098 6.18468 21.0097 6.74708L19.8137 8.42667C19.5014 8.86533 19.5957 9.46945 19.9961 9.8295C21.6692 11.3339 22.9883 13.3531 23.5058 15.7754C23.9419 17.8168 22.1924 19.2725 20.4912 19.2725H3.49994C1.79815 19.2725 0.0506189 17.817 0.485294 15.7764C1.00222 13.3497 2.32132 11.3196 3.99684 9.809C4.39638 9.4488 4.49037 8.84542 4.17851 8.40712L2.98139 6.72462C2.58128 6.16222 2.71299 5.38173 3.27533 4.98146ZM11.9999 9.25001C9.74996 9.25001 8.55593 9.70826 7.14057 10.5684C5.11325 11.8004 3.45902 13.812 2.92963 16.2969C2.90732 16.4016 2.93104 16.4899 3.01557 16.5801C3.11262 16.6834 3.28527 16.7725 3.49994 16.7725H20.4912C20.7061 16.7725 20.8795 16.6835 20.9765 16.5801C21.0608 16.4901 21.0828 16.4022 21.0605 16.2979C20.5315 13.8219 18.8805 11.8245 16.8505 10.5908C15.4248 9.7244 14.2389 9.25001 11.9999 9.25001Z" fill="url(#paint2_linear_4243_6148)"/>
<defs>
<linearGradient id="paint0_linear_4243_6148" x1="11.9957" y1="4.75" x2="11.9957" y2="19.2725" gradientUnits="userSpaceOnUse">
<stop stop-color="#FFF5D3"/>
<stop offset="0.5625" stop-color="#FBBF27"/>
<stop offset="1" stop-color="#916E17"/>
</linearGradient>
<linearGradient id="paint1_linear_4243_6148" x1="11.9957" y1="4.75" x2="11.9957" y2="19.2725" gradientUnits="userSpaceOnUse">
<stop stop-color="#FFF5D3"/>
<stop offset="0.5625" stop-color="#FBBF27"/>
<stop offset="1" stop-color="#916E17"/>
</linearGradient>
<linearGradient id="paint2_linear_4243_6148" x1="11.9957" y1="4.75" x2="11.9957" y2="19.2725" gradientUnits="userSpaceOnUse">
<stop stop-color="#FFF5D3"/>
<stop offset="0.5625" stop-color="#FBBF27"/>
<stop offset="1" stop-color="#916E17"/>
</linearGradient>
</defs>
</svg>
