<svg width="24" height="24" viewBox="0 0 24 24" fill="none" xmlns="http://www.w3.org/2000/svg">
<g clip-path="url(#clip0_4140_324)">
<path d="M12.0008 5.00005C12.002 4.60008 11.9232 4.20391 11.769 3.83485C11.6148 3.46579 11.3884 3.13128 11.1031 2.851C10.8177 2.57072 10.4792 2.35032 10.1075 2.20278C9.7357 2.05524 9.33819 1.98353 8.9383 1.99186C8.53842 2.0002 8.14424 2.08841 7.77894 2.25132C7.41365 2.41422 7.08462 2.64853 6.81121 2.94045C6.53779 3.23238 6.32552 3.57604 6.18686 3.9512C6.0482 4.32637 5.98596 4.72548 6.00381 5.12505M12.0008 5.00005V18M12.0008 5.00005C11.9996 4.60008 12.0784 4.20391 12.2326 3.83485C12.3868 3.46579 12.6132 3.13128 12.8985 2.851C13.1839 2.57072 13.5224 2.35032 13.8941 2.20278C14.2659 2.05524 14.6634 1.98353 15.0633 1.99186C15.4632 2.0002 15.8574 2.08841 16.2227 2.25132C16.588 2.41422 16.917 2.64853 17.1904 2.94045C17.4638 3.23238 17.6761 3.57604 17.8148 3.9512C17.9534 4.32637 18.0156 4.72548 17.9978 5.12505M6.00381 5.12505C5.41601 5.27619 4.87031 5.5591 4.40804 5.95236C3.94577 6.34562 3.57905 6.83892 3.33565 7.3949C3.09225 7.95087 2.97857 8.55494 3.0032 9.16136C3.02782 9.76778 3.19013 10.3606 3.47781 10.8951C2.97199 11.306 2.57423 11.8343 2.31915 12.434C2.06406 13.0337 1.95936 13.6866 2.01417 14.336C2.06898 14.9854 2.28162 15.6116 2.63361 16.1601C2.9856 16.7085 3.46627 17.1627 4.03381 17.4831M6.00381 5.12505C6.02358 5.60878 6.16014 6.08055 6.40181 6.50005M4.03381 17.4831C3.96372 18.0253 4.00555 18.5761 4.15669 19.1016C4.30784 19.627 4.5651 20.1159 4.91259 20.538C5.26008 20.9601 5.69042 21.3065 6.17703 21.5558C6.66364 21.8051 7.19618 21.952 7.74178 21.9874C8.28738 22.0228 8.83445 21.946 9.34919 21.7617C9.86394 21.5774 10.3354 21.2895 10.7346 20.9158C11.1337 20.5421 11.452 20.0906 11.6698 19.5891C11.8876 19.0876 12.0002 18.5468 12.0008 18M4.03381 17.4831C4.63407 17.8216 5.31164 18.0004 6.00081 18M12.0008 18C12.0014 18.5468 12.1141 19.0876 12.3318 19.5891C12.5496 20.0906 12.8679 20.5421 13.267 20.9158C13.6662 21.2895 14.1377 21.5774 14.6524 21.7617C15.1672 21.946 15.7142 22.0228 16.2598 21.9874C16.8054 21.952 17.338 21.8051 17.8246 21.5558C18.3112 21.3065 18.7415 20.9601 19.089 20.538C19.4365 20.1159 19.6938 19.627 19.8449 19.1016C19.9961 18.5761 20.0379 18.0253 19.9678 17.4831M17.9978 5.12505C18.5856 5.27619 19.1313 5.5591 19.5936 5.95236C20.0558 6.34562 20.4226 6.83892 20.666 7.3949C20.9094 7.95087 21.023 8.55494 20.9984 9.16136C20.9738 9.76778 20.8115 10.3606 20.5238 10.8951C21.0296 11.306 21.4274 11.8343 21.6825 12.434C21.9376 13.0337 22.0423 13.6866 21.9874 14.336C21.9326 14.9854 21.72 15.6116 21.368 16.1601C21.016 16.7085 20.5353 17.1627 19.9678 17.4831M17.9978 5.12505C17.9777 5.60887 17.8415 6.08064 17.5994 6.50005M19.9678 17.4831C19.3675 17.8216 18.69 18.0004 18.0008 18M15.0008 13.0001C14.1613 12.7047 13.4281 12.167 12.8941 11.4551C12.3601 10.7431 12.0493 9.88872 12.0008 9.00005C11.9524 9.88872 11.6415 10.7431 11.1075 11.4551C10.5735 12.167 9.84036 12.7047 9.00081 13.0001M3.47737 10.8961C3.66031 10.7471 3.85607 10.6145 4.06237 10.5001M19.9393 10.5001C20.1456 10.6145 20.3413 10.7471 20.5243 10.8961" stroke="url(#paint0_linear_4140_324)" stroke-width="2" stroke-linecap="round" stroke-linejoin="round"/>
</g>
<defs>
<linearGradient id="paint0_linear_4140_324" x1="18.9845" y1="1" x2="18.9845" y2="23" gradientUnits="userSpaceOnUse">
<stop stop-color="#FFF5D3"/>
<stop offset="0.5625" stop-color="#FBBF27"/>
<stop offset="1" stop-color="#916E17"/>
</linearGradient>
<clipPath id="clip0_4140_324">
<rect width="24" height="24" fill="white"/>
</clipPath>
</defs>
</svg>
