<svg width="24" height="24" viewBox="0 0 24 24" fill="none" xmlns="http://www.w3.org/2000/svg">
<path d="M11.5 7V21M11.5 7C11.5 5.93913 11.0786 4.92172 10.3284 4.17157C9.57828 3.42143 8.56087 3 7.5 3H2.5C2.23478 3 1.98043 3.10536 1.79289 3.29289C1.60536 3.48043 1.5 3.73478 1.5 4V17C1.5 17.2652 1.60536 17.5196 1.79289 17.7071C1.98043 17.8946 2.23478 18 2.5 18H8.5C9.29565 18 10.0587 18.3161 10.6213 18.8787C11.1839 19.4413 11.5 20.2044 11.5 21M11.5 7C11.5 5.93913 11.9214 4.92172 12.6716 4.17157C13.4217 3.42143 14.4391 3 15.5 3H20.5C20.7652 3 21.0196 3.10536 21.2071 3.29289C21.3946 3.48043 21.5 3.73478 21.5 4V17C21.5 17.2652 21.3946 17.5196 21.2071 17.7071C21.0196 17.8946 20.7652 18 20.5 18H14.5C13.7044 18 12.9413 18.3161 12.3787 18.8787C11.8161 19.4413 11.5 20.2044 11.5 21" stroke="url(#paint0_linear_4140_316)" stroke-width="2" stroke-linecap="round" stroke-linejoin="round"/>
<defs>
<linearGradient id="paint0_linear_4140_316" x1="11.5" y1="3" x2="11.5" y2="21" gradientUnits="userSpaceOnUse">
<stop stop-color="#FFF5D3"/>
<stop offset="0.5625" stop-color="#FBBF27"/>
<stop offset="1" stop-color="#916E17"/>
</linearGradient>
</defs>
</svg>
