<svg width="24" height="24" viewBox="0 0 24 24" fill="none" xmlns="http://www.w3.org/2000/svg">
<path d="M12 7.5V21.5M12 7.5C12 6.43913 11.5786 5.42172 10.8284 4.67157C10.0783 3.92143 9.06087 3.5 8 3.5H3C2.73478 3.5 2.48043 3.60536 2.29289 3.79289C2.10536 3.98043 2 4.23478 2 4.5V17.5C2 17.7652 2.10536 18.0196 2.29289 18.2071C2.48043 18.3946 2.73478 18.5 3 18.5H9C9.79565 18.5 10.5587 18.8161 11.1213 19.3787C11.6839 19.9413 12 20.7044 12 21.5M12 7.5C12 6.43913 12.4214 5.42172 13.1716 4.67157C13.9217 3.92143 14.9391 3.5 16 3.5H21C21.2652 3.5 21.5196 3.60536 21.7071 3.79289C21.8946 3.98043 22 4.23478 22 4.5V17.5C22 17.7652 21.8946 18.0196 21.7071 18.2071C21.5196 18.3946 21.2652 18.5 21 18.5H15C14.2044 18.5 13.4413 18.8161 12.8787 19.3787C12.3161 19.9413 12 20.7044 12 21.5" stroke="url(#paint0_linear_4140_316)" stroke-width="2" stroke-linecap="round" stroke-linejoin="round"/>
<defs>
<linearGradient id="paint0_linear_4140_316" x1="12" y1="3.5" x2="12" y2="21.5" gradientUnits="userSpaceOnUse">
<stop stop-color="#FFF5D3"/>
<stop offset="0.5625" stop-color="#FBBF27"/>
<stop offset="1" stop-color="#916E17"/>
</linearGradient>
</defs>
</svg>
