<?xml version="1.0" encoding="UTF-8"?> <svg xmlns="http://www.w3.org/2000/svg" width="38" height="38" viewBox="0 0 38 38" fill="none"> <path fill-rule="evenodd" clip-rule="evenodd" d="M19.1964 0.601166C9.03505 0.601166 0.797607 8.83861 0.797607 19C0.797607 29.1614 9.03505 37.3988 19.1964 37.3988C29.3578 37.3988 37.5953 29.1614 37.5953 19C37.5953 8.83861 29.3578 0.601166 19.1964 0.601166ZM27.1431 11.2558C29.0746 13.2075 30.2204 15.8017 30.3621 18.544V19.8516C30.2062 22.5778 29.057 25.1525 27.1318 27.089C25.2066 29.0255 22.6386 30.1896 19.9134 30.3615C14.2117 30.3615 8.15698 26.3057 8.15698 18.4951C8.31171 15.7703 9.45657 13.1958 11.3763 11.2559C13.296 9.31591 15.8582 8.1441 18.5813 7.96078H19.8889C22.6295 8.13118 25.2116 9.30402 27.1431 11.2558ZM12.2904 25.4273C10.6591 23.6715 9.77012 21.456 9.77012 19.0695V18.8984C12.9842 18.9192 16.1837 18.4662 19.2657 17.5541H19.3634C19.5961 18.1225 19.9044 18.6568 20.28 19.1428C16.9057 20.2321 14.1164 22.3878 12.2904 25.4273ZM18.7035 15.9776C15.8751 16.7926 12.9458 17.204 10.0023 17.1997C10.2844 15.7663 10.8976 14.4187 11.793 13.2645C12.6885 12.1102 13.8413 11.1812 15.1595 10.5516C16.4427 12.2917 17.6259 14.1033 18.7035 15.9776ZM20.8666 20.8048C21.8106 23.1032 22.5071 25.4957 22.9441 27.9417C19.8469 29.7457 15.7597 28.3944 13.5247 26.6005C15.1823 23.7806 17.7485 21.793 20.8666 20.8048ZM20.5855 15.4521C19.8278 14.0752 18.6587 12.2095 17.0781 9.85501C17.896 9.64123 18.7381 9.53443 19.5834 9.53726C20.6781 9.53471 21.7625 9.74943 22.7736 10.169C23.7847 10.5885 24.7025 11.2046 25.4738 11.9814C24.204 13.5758 22.5094 14.779 20.5855 15.4521ZM28.7368 19.1184C27.3008 18.8254 25.8395 18.674 24.3739 18.6662C23.6336 18.6617 22.8941 18.7148 22.162 18.8251C22.0887 18.6173 21.942 18.2873 21.7343 17.8596C21.573 17.5565 21.4341 17.242 21.3188 16.9186C23.3671 16.1527 25.1789 14.8633 26.5737 13.1791C27.9483 14.8358 28.7081 16.9167 28.7245 19.0695L28.7368 19.1184ZM24.5594 27.0971C24.5594 27.0971 24.5539 27.0817 24.5573 27.0985L24.5594 27.0971ZM24.5594 27.0971C25.6398 26.3803 26.5592 25.4466 27.2594 24.3554C27.96 23.2635 28.4257 22.0376 28.6268 20.7559C27.4445 20.3633 26.2063 20.1652 24.9605 20.1693C24.2201 20.1735 23.4809 20.2307 22.7486 20.3404C23.4961 22.5516 24.101 24.8085 24.5594 27.0971Z" fill="url(#paint0_linear_886_26871)"></path> <path fill-rule="evenodd" clip-rule="evenodd" d="M19.1964 0.601166C9.03505 0.601166 0.797607 8.83861 0.797607 19C0.797607 29.1614 9.03505 37.3988 19.1964 37.3988C29.3578 37.3988 37.5953 29.1614 37.5953 19C37.5953 8.83861 29.3578 0.601166 19.1964 0.601166ZM27.1431 11.2558C29.0746 13.2075 30.2204 15.8017 30.3621 18.544V19.8516C30.2062 22.5778 29.057 25.1525 27.1318 27.089C25.2066 29.0255 22.6386 30.1896 19.9134 30.3615C14.2117 30.3615 8.15698 26.3057 8.15698 18.4951C8.31171 15.7703 9.45657 13.1958 11.3763 11.2559C13.296 9.31591 15.8582 8.1441 18.5813 7.96078H19.8889C22.6295 8.13118 25.2116 9.30402 27.1431 11.2558ZM12.2904 25.4273C10.6591 23.6715 9.77012 21.456 9.77012 19.0695V18.8984C12.9842 18.9192 16.1837 18.4662 19.2657 17.5541H19.3634C19.5961 18.1225 19.9044 18.6568 20.28 19.1428C16.9057 20.2321 14.1164 22.3878 12.2904 25.4273ZM18.7035 15.9776C15.8751 16.7926 12.9458 17.204 10.0023 17.1997C10.2844 15.7663 10.8976 14.4187 11.793 13.2645C12.6885 12.1102 13.8413 11.1812 15.1595 10.5516C16.4427 12.2917 17.6259 14.1033 18.7035 15.9776ZM20.8666 20.8048C21.8106 23.1032 22.5071 25.4957 22.9441 27.9417C19.8469 29.7457 15.7597 28.3944 13.5247 26.6005C15.1823 23.7806 17.7485 21.793 20.8666 20.8048ZM20.5855 15.4521C19.8278 14.0752 18.6587 12.2095 17.0781 9.85501C17.896 9.64123 18.7381 9.53443 19.5834 9.53726C20.6781 9.53471 21.7625 9.74943 22.7736 10.169C23.7847 10.5885 24.7025 11.2046 25.4738 11.9814C24.204 13.5758 22.5094 14.779 20.5855 15.4521ZM28.7368 19.1184C27.3008 18.8254 25.8395 18.674 24.3739 18.6662C23.6336 18.6617 22.8941 18.7148 22.162 18.8251C22.0887 18.6173 21.942 18.2873 21.7343 17.8596C21.573 17.5565 21.4341 17.242 21.3188 16.9186C23.3671 16.1527 25.1789 14.8633 26.5737 13.1791C27.9483 14.8358 28.7081 16.9167 28.7245 19.0695L28.7368 19.1184ZM24.5594 27.0971C24.5594 27.0971 24.5539 27.0817 24.5573 27.0985L24.5594 27.0971ZM24.5594 27.0971C25.6398 26.3803 26.5592 25.4466 27.2594 24.3554C27.96 23.2635 28.4257 22.0376 28.6268 20.7559C27.4445 20.3633 26.2063 20.1652 24.9605 20.1693C24.2201 20.1735 23.4809 20.2307 22.7486 20.3404C23.4961 22.5516 24.101 24.8085 24.5594 27.0971Z" fill="white"></path> <defs> <linearGradient id="paint0_linear_886_26871" x1="19.1964" y1="0.601166" x2="19.1964" y2="37.3988" gradientUnits="userSpaceOnUse"> <stop stop-color="#DBAC93"></stop> <stop offset="1" stop-color="#B34D17"></stop> </linearGradient> </defs> </svg> 