<?xml version="1.0" encoding="UTF-8"?> <svg xmlns="http://www.w3.org/2000/svg" width="40" height="40" viewBox="0 0 40 40" fill="none"> <path fill-rule="evenodd" clip-rule="evenodd" d="M20 0C8.95431 0 0 8.95431 0 20C0 31.0457 8.95431 40 20 40C31.0457 40 40 31.0457 40 20C40 8.95431 31.0457 0 20 0ZM13.3931 18.1679C11.3896 19.0427 9.33104 19.9415 7.44869 20.9783L7.44855 20.9785C6.46565 21.6981 7.77213 22.2071 8.99769 22.6846C9.19253 22.7605 9.38533 22.8356 9.56655 22.9106C9.71736 22.957 9.87072 23.0058 10.0261 23.0554C11.3892 23.4896 12.9091 23.9739 14.2324 23.2454C16.4062 21.9967 18.4576 20.553 20.5075 19.1104C21.1791 18.6378 21.8505 18.1653 22.5261 17.6998C22.5577 17.6795 22.5934 17.6564 22.6324 17.6311C23.2079 17.258 24.5021 16.4191 24.0234 17.5751C22.8914 18.8131 21.6788 19.909 20.4597 21.0108C19.6381 21.7534 18.8134 22.4987 18.0084 23.2921C17.3073 23.8617 16.5793 25.0074 17.3643 25.8051C19.1725 27.0709 21.009 28.3061 22.8444 29.5406C23.4417 29.9423 24.0389 30.344 24.635 30.7466C25.6452 31.5531 27.2239 30.9007 27.446 29.6404C27.5448 29.0606 27.6439 28.4809 27.7431 27.901C28.2911 24.6972 28.8393 21.4922 29.3235 18.2779C29.3893 17.7737 29.4639 17.2695 29.5386 16.7651C29.7195 15.5425 29.9006 14.3184 29.9572 13.0893C29.8114 11.8626 28.3241 12.1323 27.4964 12.4082C23.242 14.027 19.0302 15.7658 14.835 17.5353C14.3598 17.7459 13.8781 17.9562 13.3931 18.1679Z" fill="white"></path> </svg> 