<svg width="24" height="24" viewBox="0 0 24 24" fill="none" xmlns="http://www.w3.org/2000/svg">
<path d="M19.5 3.00024V7.00024M21.5 5.00024H17.5M3.5 17.0002V19.0002M4.5 18.0002H2.5M9.43743 15.5002C9.34815 15.1542 9.16777 14.8384 8.91505 14.5856C8.66232 14.3329 8.3465 14.1525 8.00043 14.0632L1.86543 12.4812C1.76076 12.4515 1.66864 12.3885 1.60304 12.3017C1.53744 12.2149 1.50195 12.1091 1.50195 12.0002C1.50195 11.8914 1.53744 11.7856 1.60304 11.6988C1.66864 11.612 1.76076 11.549 1.86543 11.5192L8.00043 9.93625C8.34638 9.84706 8.66212 9.66682 8.91483 9.41429C9.16754 9.16175 9.34799 8.84614 9.43743 8.50025L11.0194 2.36525C11.0488 2.26017 11.1118 2.16759 11.1987 2.10164C11.2857 2.0357 11.3918 2 11.5009 2C11.61 2 11.7162 2.0357 11.8031 2.10164C11.89 2.16759 11.953 2.26017 11.9824 2.36525L13.5634 8.50025C13.6527 8.84632 13.8331 9.16215 14.0858 9.41487C14.3385 9.66759 14.6544 9.84797 15.0004 9.93725L21.1354 11.5182C21.2409 11.5473 21.334 11.6103 21.4003 11.6973C21.4666 11.7844 21.5025 11.8908 21.5025 12.0002C21.5025 12.1097 21.4666 12.2161 21.4003 12.3032C21.334 12.3902 21.2409 12.4531 21.1354 12.4822L15.0004 14.0632C14.6544 14.1525 14.3385 14.3329 14.0858 14.5856C13.8331 14.8384 13.6527 15.1542 13.5634 15.5002L11.9814 21.6353C11.952 21.7403 11.889 21.8329 11.8021 21.8989C11.7152 21.9648 11.609 22.0005 11.4999 22.0005C11.3908 22.0005 11.2847 21.9648 11.1977 21.8989C11.1108 21.8329 11.0478 21.7403 11.0184 21.6353L9.43743 15.5002Z" stroke="url(#paint0_linear_4140_308)" stroke-width="2" stroke-linecap="round" stroke-linejoin="round"/>
<defs>
<linearGradient id="paint0_linear_4140_308" x1="11.5022" y1="2" x2="11.5022" y2="22.0005" gradientUnits="userSpaceOnUse">
<stop stop-color="#FFF5D3"/>
<stop offset="0.5625" stop-color="#FBBF27"/>
<stop offset="1" stop-color="#916E17"/>
</linearGradient>
</defs>
</svg>
