<?xml version="1.0" encoding="UTF-8"?> <svg xmlns="http://www.w3.org/2000/svg" width="37" height="38" viewBox="0 0 37 38" fill="none"> <path fill-rule="evenodd" clip-rule="evenodd" d="M18.3988 0.601166C8.23744 0.601166 0 8.83861 0 19C0 29.1614 8.23744 37.3988 18.3988 37.3988C28.5602 37.3988 36.7977 29.1614 36.7977 19C36.7977 8.83861 28.5602 0.601166 18.3988 0.601166ZM9.68484 26.3432L7.90967 23.2758H20.9181L23.3621 27.5115H11.5797C10.7499 27.5115 10.0358 27.0368 9.68484 26.3432ZM21.6819 10.1435L28.5432 22.1447C29.2835 23.2902 28.6227 24.3291 28.4802 24.5533C28.4717 24.5667 28.465 24.5771 28.4606 24.5845L26.7804 27.495L16.1581 9.01645H19.8076C20.6209 9.01645 21.3268 9.47473 21.6819 10.1435ZM14.4118 12.0096L19.1801 20.2662H9.64357L14.4118 12.0096Z" fill="url(#paint0_linear_886_26868)"></path> <path fill-rule="evenodd" clip-rule="evenodd" d="M18.3988 0.601166C8.23744 0.601166 0 8.83861 0 19C0 29.1614 8.23744 37.3988 18.3988 37.3988C28.5602 37.3988 36.7977 29.1614 36.7977 19C36.7977 8.83861 28.5602 0.601166 18.3988 0.601166ZM9.68484 26.3432L7.90967 23.2758H20.9181L23.3621 27.5115H11.5797C10.7499 27.5115 10.0358 27.0368 9.68484 26.3432ZM21.6819 10.1435L28.5432 22.1447C29.2835 23.2902 28.6227 24.3291 28.4802 24.5533C28.4717 24.5667 28.465 24.5771 28.4606 24.5845L26.7804 27.495L16.1581 9.01645H19.8076C20.6209 9.01645 21.3268 9.47473 21.6819 10.1435ZM14.4118 12.0096L19.1801 20.2662H9.64357L14.4118 12.0096Z" fill="white"></path> <defs> <linearGradient id="paint0_linear_886_26868" x1="18.3988" y1="0.601166" x2="18.3988" y2="37.3988" gradientUnits="userSpaceOnUse"> <stop stop-color="#DBAC93"></stop> <stop offset="1" stop-color="#B34D17"></stop> </linearGradient> </defs> </svg> 