<?xml version="1.0" encoding="UTF-8"?> <svg xmlns="http://www.w3.org/2000/svg" width="38" height="38" viewBox="0 0 38 38" fill="none"> <path fill-rule="evenodd" clip-rule="evenodd" d="M18.994 0.601166C8.83265 0.601166 0.595215 8.83861 0.595215 19C0.595215 29.1614 8.83265 37.3988 18.994 37.3988C29.1554 37.3988 37.3929 29.1614 37.3929 19C37.3929 8.83861 29.1554 0.601166 18.994 0.601166ZM19.7024 21.7301C19.7024 25.8004 15.4672 25.6661 15.4672 25.6661H8.52734V12.3303H15.4672C17.5754 12.3303 19.2396 13.4947 19.2396 15.8807C19.2396 18.2667 17.2047 18.4186 17.2047 18.4186C19.8874 18.4186 19.7024 21.7301 19.7024 21.7301ZM16.4103 16.0878C16.4103 14.7007 15.4672 14.7007 15.4672 14.7007H11.5845V17.676H15.2264C15.8547 17.676 16.4103 17.4742 16.4103 16.0878ZM11.5845 19.7323H15.4672C15.4672 19.7323 16.8718 19.7135 16.8718 21.5639C16.8718 23.123 15.8235 23.284 15.2705 23.297C15.1984 23.2979 15.1336 23.2975 15.0812 23.2972L15.0219 23.297H11.5845V19.7323ZM22.4836 12.8366H27.9858V14.4787H22.4836V12.8366ZM29.9953 21.2329H23.0847C23.0847 23.7098 25.431 23.554 25.431 23.554C27.647 23.554 27.5697 22.1189 27.5697 22.1189H29.9174C29.9174 25.927 25.3525 25.6661 25.3525 25.6661C19.877 25.6661 20.2294 20.5676 20.2294 20.5676C20.2294 20.5676 20.2242 15.4445 25.3525 15.4445C30.7508 15.4445 29.9953 21.2329 29.9953 21.2329ZM25.4044 17.3969C23.3443 17.3969 23.0581 19.4532 23.0581 19.4532H27.438C27.438 19.4532 27.4659 17.3969 25.4044 17.3969Z" fill="url(#paint0_linear_886_26874)"></path> <path fill-rule="evenodd" clip-rule="evenodd" d="M18.994 0.601166C8.83265 0.601166 0.595215 8.83861 0.595215 19C0.595215 29.1614 8.83265 37.3988 18.994 37.3988C29.1554 37.3988 37.3929 29.1614 37.3929 19C37.3929 8.83861 29.1554 0.601166 18.994 0.601166ZM19.7024 21.7301C19.7024 25.8004 15.4672 25.6661 15.4672 25.6661H8.52734V12.3303H15.4672C17.5754 12.3303 19.2396 13.4947 19.2396 15.8807C19.2396 18.2667 17.2047 18.4186 17.2047 18.4186C19.8874 18.4186 19.7024 21.7301 19.7024 21.7301ZM16.4103 16.0878C16.4103 14.7007 15.4672 14.7007 15.4672 14.7007H11.5845V17.676H15.2264C15.8547 17.676 16.4103 17.4742 16.4103 16.0878ZM11.5845 19.7323H15.4672C15.4672 19.7323 16.8718 19.7135 16.8718 21.5639C16.8718 23.123 15.8235 23.284 15.2705 23.297C15.1984 23.2979 15.1336 23.2975 15.0812 23.2972L15.0219 23.297H11.5845V19.7323ZM22.4836 12.8366H27.9858V14.4787H22.4836V12.8366ZM29.9953 21.2329H23.0847C23.0847 23.7098 25.431 23.554 25.431 23.554C27.647 23.554 27.5697 22.1189 27.5697 22.1189H29.9174C29.9174 25.927 25.3525 25.6661 25.3525 25.6661C19.877 25.6661 20.2294 20.5676 20.2294 20.5676C20.2294 20.5676 20.2242 15.4445 25.3525 15.4445C30.7508 15.4445 29.9953 21.2329 29.9953 21.2329ZM25.4044 17.3969C23.3443 17.3969 23.0581 19.4532 23.0581 19.4532H27.438C27.438 19.4532 27.4659 17.3969 25.4044 17.3969Z" fill="white"></path> <defs> <linearGradient id="paint0_linear_886_26874" x1="18.994" y1="0.601166" x2="18.994" y2="37.3988" gradientUnits="userSpaceOnUse"> <stop stop-color="#DBAC93"></stop> <stop offset="1" stop-color="#B34D17"></stop> </linearGradient> </defs> </svg> 