<svg width="100" height="100" viewBox="0 0 100 100" fill="none" xmlns="http://www.w3.org/2000/svg">
<path d="M51.9531 1.17188C74.0502 1.17188 85.099 1.17185 91.9639 8.03613C98.8283 14.9008 98.8281 25.9498 98.8281 48.0469V51.9531C98.8281 74.0501 98.8285 85.099 91.9639 91.9639C85.099 98.8285 74.0502 98.8281 51.9531 98.8281H48.0469C25.9498 98.8281 14.9008 98.8285 8.03613 91.9639C1.17149 85.0992 1.17188 74.05 1.17188 51.9531V48.0469C1.17188 25.9498 1.17165 14.9008 8.03613 8.03613C14.9008 1.17186 25.9498 1.17188 48.0469 1.17188H51.9531ZM59.0518 19.2734C56.0634 18.5269 53.1663 20.7749 53.166 23.8408V29.5742L41.2412 26.5957C38.2527 25.8492 35.3555 28.098 35.3555 31.1641V36.8965L23.4307 33.918C20.4422 33.1713 17.5449 35.4203 17.5449 38.4863V70.2881C17.5449 72.9874 19.3895 75.3417 22.0205 75.999L40.9463 80.7266C43.9348 81.473 46.832 79.2242 46.832 76.1582V70.8701H46.8281L46.833 44.4023C46.833 41.7193 45.1381 40.1641 44.5225 39.6875C44.4051 39.5965 44.3731 39.4271 44.457 39.3047C44.5398 39.1843 44.6893 39.1269 44.8291 39.1689C47.3227 39.9219 49.7092 42.4789 49.9473 45.6934L50.7705 69.9805C50.7975 70.7785 51.3137 71.4705 52.0566 71.7305L58.7568 73.4043C61.7453 74.1508 64.6426 71.902 64.6426 68.8359L64.6475 37.083C64.6474 34.4 62.9525 32.8447 62.3369 32.3682C62.2194 32.2771 62.1871 32.1076 62.2715 31.9854C62.3543 31.8649 62.5038 31.8075 62.6436 31.8496C65.1371 32.6025 67.5236 35.1596 67.7617 38.374L68.585 62.6592C68.6133 63.49 69.1742 64.2057 69.9688 64.4336L76.5674 66.082C79.5556 66.8282 82.4529 64.5796 82.4531 61.5137V29.7109C82.4531 27.0116 80.6076 24.6582 77.9766 24.001L59.0518 19.2734Z" fill="#0077FF"/>
<path d="M51.9531 1.17188C74.0502 1.17188 85.099 1.17185 91.9639 8.03613C98.8283 14.9008 98.8281 25.9498 98.8281 48.0469V51.9531C98.8281 74.0501 98.8285 85.099 91.9639 91.9639C85.099 98.8285 74.0502 98.8281 51.9531 98.8281H48.0469C25.9498 98.8281 14.9008 98.8285 8.03613 91.9639C1.17149 85.0992 1.17188 74.05 1.17188 51.9531V48.0469C1.17188 25.9498 1.17165 14.9008 8.03613 8.03613C14.9008 1.17186 25.9498 1.17188 48.0469 1.17188H51.9531ZM59.0518 19.2734C56.0634 18.5269 53.1663 20.7749 53.166 23.8408V29.5742L41.2412 26.5957C38.2527 25.8492 35.3555 28.098 35.3555 31.1641V36.8965L23.4307 33.918C20.4422 33.1713 17.5449 35.4203 17.5449 38.4863V70.2881C17.5449 72.9874 19.3895 75.3417 22.0205 75.999L40.9463 80.7266C43.9348 81.473 46.832 79.2242 46.832 76.1582V70.8701H46.8281L46.833 44.4023C46.833 41.7193 45.1381 40.1641 44.5225 39.6875C44.4051 39.5965 44.3731 39.4271 44.457 39.3047C44.5398 39.1843 44.6893 39.1269 44.8291 39.1689C47.3227 39.9219 49.7092 42.4789 49.9473 45.6934L50.7705 69.9805C50.7975 70.7785 51.3137 71.4705 52.0566 71.7305L58.7568 73.4043C61.7453 74.1508 64.6426 71.902 64.6426 68.8359L64.6475 37.083C64.6474 34.4 62.9525 32.8447 62.3369 32.3682C62.2194 32.2771 62.1871 32.1076 62.2715 31.9854C62.3543 31.8649 62.5038 31.8075 62.6436 31.8496C65.1371 32.6025 67.5236 35.1596 67.7617 38.374L68.585 62.6592C68.6133 63.49 69.1742 64.2057 69.9688 64.4336L76.5674 66.082C79.5556 66.8282 82.4529 64.5796 82.4531 61.5137V29.7109C82.4531 27.0116 80.6076 24.6582 77.9766 24.001L59.0518 19.2734Z" fill="url(#paint0_linear_4499_1798)"/>
<defs>
<linearGradient id="paint0_linear_4499_1798" x1="50" y1="1.17187" x2="50" y2="98.8281" gradientUnits="userSpaceOnUse">
<stop stop-color="#FFF5D3"/>
<stop offset="0.5625" stop-color="#FBBF27"/>
<stop offset="1" stop-color="#916E17"/>
</linearGradient>
</defs>
</svg>
