<?xml version="1.0" encoding="UTF-8"?> <svg xmlns="http://www.w3.org/2000/svg" width="40" height="40" viewBox="0 0 40 40" fill="none"> <path fill-rule="evenodd" clip-rule="evenodd" d="M20 0C8.95431 0 0 8.95431 0 20C0 31.0457 8.95431 40 20 40C31.0457 40 40 31.0457 40 20C40 8.95431 31.0457 0 20 0ZM25.887 29.3365H30.0357L30.0375 22.0068C30.0375 18.4085 29.2622 15.6426 25.0573 15.6426C24.2683 15.6133 23.4862 15.7986 22.7942 16.1787C22.1022 16.5587 21.5262 17.1194 21.1277 17.8009H21.0719V15.975H17.0891V29.3361H21.2379V22.7264C21.2379 20.9834 21.5685 19.2954 23.7293 19.2954C25.8594 19.2954 25.887 21.2898 25.887 22.8392V29.3365ZM11.0703 13.7431C11.4663 14.0076 11.9318 14.1487 12.408 14.1486C12.7242 14.1486 13.0372 14.0862 13.3293 13.9652C13.6214 13.8441 13.8868 13.6667 14.1103 13.4431C14.3338 13.2195 14.5111 12.9541 14.632 12.6619C14.7529 12.3698 14.8152 12.0567 14.8151 11.7405C14.815 11.2644 14.6737 10.7989 14.4091 10.403C14.1445 10.0071 13.7684 9.69859 13.3285 9.51644C12.8885 9.33429 12.4045 9.2867 11.9375 9.37968C11.4704 9.47266 11.0415 9.70205 10.7049 10.0388C10.3682 10.3756 10.139 10.8046 10.0462 11.2717C9.95336 11.7387 10.0011 12.2228 10.1834 12.6627C10.3657 13.1026 10.6744 13.4786 11.0703 13.7431ZM10.3293 29.3365H14.4823V15.975H10.3293V29.3365Z" fill="white"></path> </svg> 