<svg width="100" height="100" viewBox="0 0 100 100" fill="none" xmlns="http://www.w3.org/2000/svg">
<g clip-path="url(#clip0_4499_1777)">
<path d="M71.9385 0C92.4823 8.68805e-05 99.9961 7.51298 99.9961 28.0527V71.9473C99.9961 92.4871 92.4683 100 71.9248 100H28.0547C7.51068 100 -0.00387498 92.4871 -0.00390625 71.9473V28.0527C-0.00387656 7.51289 7.51067 2.44148e-05 28.0547 0H71.9385ZM34.7236 57.4941C34.7236 59.6223 33.6663 60.7598 31.7471 60.7598C29.8174 60.7597 28.7549 59.5893 28.7549 57.4033V50.0088H26.0986V57.4941C26.0987 61.1759 28.1448 63.2871 31.7109 63.2871C35.3124 63.2871 37.3769 61.1357 37.377 57.3848V50.001H34.7236V57.4941ZM11.1074 63.0918H13.7637V57.7754H19.7607V63.0918H22.416V50.001H19.7607V55.2812H13.7637V50.001H11.1074V63.0918ZM57.3076 59.0029L54.415 50.0068H51.5879L56.1514 63.0908H58.3496L61.3262 54.4971L64.3018 63.0908H66.5195L71.0713 50.0068H68.3164L65.4189 59.0029L62.4473 50H60.2783L57.3076 59.0029ZM38.7246 63.084H41.4365L42.627 60.3584H48.6182L49.7939 63.084H52.5781L46.835 50.001H44.4912L38.7246 63.084ZM73.2119 63.083H83.0986V60.6982H75.833V57.458H80.6641V55.0742H75.833V52.3945H82.8457V50.0098H73.2119V63.083ZM86.2637 63.0742H88.8848V50H86.2637V63.0742ZM47.6309 57.998H43.6162L45.6162 53.3135L47.6309 57.998ZM33.3291 16.667C33.3292 25.8571 40.8052 33.334 49.9961 33.334C59.186 33.3338 66.662 25.8569 66.6621 16.667H64.3086C64.3085 24.5581 57.8871 30.9783 49.9961 30.9785C42.1049 30.9785 35.6837 24.5582 35.6836 16.667H33.3291Z" fill="url(#paint0_linear_4499_1777)"/>
<path d="M71.9385 0C92.4823 8.68805e-05 99.9961 7.51298 99.9961 28.0527V71.9473C99.9961 92.4871 92.4683 100 71.9248 100H28.0547C7.51068 100 -0.00387498 92.4871 -0.00390625 71.9473V28.0527C-0.00387656 7.51289 7.51067 2.44148e-05 28.0547 0H71.9385ZM34.7236 57.4941C34.7236 59.6223 33.6663 60.7598 31.7471 60.7598C29.8174 60.7597 28.7549 59.5893 28.7549 57.4033V50.0088H26.0986V57.4941C26.0987 61.1759 28.1448 63.2871 31.7109 63.2871C35.3124 63.2871 37.3769 61.1357 37.377 57.3848V50.001H34.7236V57.4941ZM11.1074 63.0918H13.7637V57.7754H19.7607V63.0918H22.416V50.001H19.7607V55.2812H13.7637V50.001H11.1074V63.0918ZM57.3076 59.0029L54.415 50.0068H51.5879L56.1514 63.0908H58.3496L61.3262 54.4971L64.3018 63.0908H66.5195L71.0713 50.0068H68.3164L65.4189 59.0029L62.4473 50H60.2783L57.3076 59.0029ZM38.7246 63.084H41.4365L42.627 60.3584H48.6182L49.7939 63.084H52.5781L46.835 50.001H44.4912L38.7246 63.084ZM73.2119 63.083H83.0986V60.6982H75.833V57.458H80.6641V55.0742H75.833V52.3945H82.8457V50.0098H73.2119V63.083ZM86.2637 63.0742H88.8848V50H86.2637V63.0742ZM47.6309 57.998H43.6162L45.6162 53.3135L47.6309 57.998ZM33.3291 16.667C33.3292 25.8571 40.8052 33.334 49.9961 33.334C59.186 33.3338 66.662 25.8569 66.6621 16.667H64.3086C64.3085 24.5581 57.8871 30.9783 49.9961 30.9785C42.1049 30.9785 35.6837 24.5582 35.6836 16.667H33.3291Z" fill="url(#paint1_linear_4499_1777)"/>
</g>
<defs>
<linearGradient id="paint0_linear_4499_1777" x1="49.998" y1="0" x2="49.998" y2="100" gradientUnits="userSpaceOnUse">
<stop stop-color="#FB6361"/>
<stop offset="1" stop-color="#ED3E45"/>
</linearGradient>
<linearGradient id="paint1_linear_4499_1777" x1="49.9961" y1="0" x2="49.9961" y2="100" gradientUnits="userSpaceOnUse">
<stop stop-color="#FFF5D3"/>
<stop offset="0.5625" stop-color="#FBBF27"/>
<stop offset="1" stop-color="#916E17"/>
</linearGradient>
<clipPath id="clip0_4499_1777">
<rect width="100" height="100" fill="white"/>
</clipPath>
</defs>
</svg>
