<svg width="100" height="100" viewBox="0 0 100 100" fill="none" xmlns="http://www.w3.org/2000/svg">
<path d="M14.25 4L57.5625 47L69.4375 35.125L16.9375 4.8125C16.0625 4.30469 15.125 4.02344 14.25 4ZM10.625 6C10.2344 6.69531 10 7.51563 10 8.4375V92C10 92.6719 10.1406 93.2734 10.375 93.8125L54.6875 49.8125L10.625 6ZM73.0625 37.1875L60.375 49.8125L73.0625 62.375L88.5625 53.5C90.7656 52.2266 91.0781 50.6094 91.0625 49.75C91.0391 48.3281 90.1406 47 88.625 46.1875C87.3047 45.4766 77.5 39.7656 73.0625 37.1875ZM57.5625 52.625L13.875 95.9375C14.6016 95.8984 15.3906 95.7422 16.125 95.3125C17.8359 94.3203 52.4375 74.3125 52.4375 74.3125L69.5 64.5L57.5625 52.625Z" fill="black"/>
<path d="M14.25 4L57.5625 47L69.4375 35.125L16.9375 4.8125C16.0625 4.30469 15.125 4.02344 14.25 4ZM10.625 6C10.2344 6.69531 10 7.51563 10 8.4375V92C10 92.6719 10.1406 93.2734 10.375 93.8125L54.6875 49.8125L10.625 6ZM73.0625 37.1875L60.375 49.8125L73.0625 62.375L88.5625 53.5C90.7656 52.2266 91.0781 50.6094 91.0625 49.75C91.0391 48.3281 90.1406 47 88.625 46.1875C87.3047 45.4766 77.5 39.7656 73.0625 37.1875ZM57.5625 52.625L13.875 95.9375C14.6016 95.8984 15.3906 95.7422 16.125 95.3125C17.8359 94.3203 52.4375 74.3125 52.4375 74.3125L69.5 64.5L57.5625 52.625Z" fill="url(#paint0_linear_4499_1796)"/>
<defs>
<linearGradient id="paint0_linear_4499_1796" x1="50.5315" y1="4" x2="50.5315" y2="95.9375" gradientUnits="userSpaceOnUse">
<stop stop-color="#FFF5D3"/>
<stop offset="0.5625" stop-color="#FBBF27"/>
<stop offset="1" stop-color="#916E17"/>
</linearGradient>
</defs>
</svg>
