<svg width="20" height="20" viewBox="0 0 20 20" fill="none" xmlns="http://www.w3.org/2000/svg">
<path d="M8.32324 11.1777L8.3291 11.1816C8.7976 11.5732 9.37637 11.8096 10 11.8096C10.6236 11.8096 11.2024 11.5732 11.6709 11.1816L11.6768 11.1777L19.791 4.29688V15.709C19.791 16.7906 18.9146 17.668 17.833 17.668H2.16602C1.08441 17.668 0.207031 16.7906 0.207031 15.709V4.2959L8.32324 11.1777ZM17.833 2C18.2586 2 18.6514 2.1376 18.9727 2.36816L10.3887 9.64746L10.2803 9.72559C10.1746 9.78879 10.0787 9.80957 10 9.80957C9.89507 9.80957 9.76025 9.77194 9.61133 9.64746H9.61035L1.02539 2.36816C1.34669 2.13743 1.74026 2 2.16602 2H17.833Z" fill="#D1D5DC"/>
<path d="M8.32324 11.1777L8.3291 11.1816C8.7976 11.5732 9.37637 11.8096 10 11.8096C10.6236 11.8096 11.2024 11.5732 11.6709 11.1816L11.6768 11.1777L19.791 4.29688V15.709C19.791 16.7906 18.9146 17.668 17.833 17.668H2.16602C1.08441 17.668 0.207031 16.7906 0.207031 15.709V4.2959L8.32324 11.1777ZM17.833 2C18.2586 2 18.6514 2.1376 18.9727 2.36816L10.3887 9.64746L10.2803 9.72559C10.1746 9.78879 10.0787 9.80957 10 9.80957C9.89507 9.80957 9.76025 9.77194 9.61133 9.64746H9.61035L1.02539 2.36816C1.34669 2.13743 1.74026 2 2.16602 2H17.833Z" fill="url(#paint0_linear_4248_7669)"/>
<defs>
<linearGradient id="paint0_linear_4248_7669" x1="9.99902" y1="2" x2="9.99902" y2="17.668" gradientUnits="userSpaceOnUse">
<stop stop-color="white"/>
<stop offset="0.5625" stop-color="#BEBEBE"/>
<stop offset="1" stop-color="#5E5E5E"/>
</linearGradient>
</defs>
</svg>
