<svg width="20" height="20" viewBox="0 0 20 20" fill="none" xmlns="http://www.w3.org/2000/svg">
<path d="M10 1C14.9707 1 19 5.02926 19 10C19 14.9707 14.9707 19 10 19C5.02926 19 1 14.9707 1 10C1 5.02926 5.02926 1 10 1ZM13.1046 13.6685C13.2701 13.1606 14.0457 8.09865 14.1416 7.10122C14.1705 6.79913 14.075 6.59839 13.888 6.50878C13.6618 6.4 13.3269 6.45439 12.9383 6.59448C12.4053 6.78661 5.59196 9.67952 5.1983 9.847C4.825 10.0055 4.47204 10.1784 4.47204 10.4289C4.47204 10.605 4.57652 10.704 4.86452 10.8069C5.16426 10.9137 5.91909 11.1426 6.36478 11.2655C6.79404 11.384 7.28278 11.2811 7.5567 11.1109C7.84704 10.9305 11.1978 8.68835 11.4384 8.49191C11.6787 8.29548 11.8704 8.54709 11.674 8.74391C11.4776 8.94035 9.17748 11.1727 8.87422 11.4819C8.506 11.8571 8.76739 12.2461 9.0143 12.4018C9.29644 12.5795 11.3253 13.9404 11.631 14.1588C11.9366 14.3771 12.2465 14.4761 12.5302 14.4761C12.8139 14.4761 12.9633 14.1024 13.1046 13.6685Z" fill="white"/>
<path d="M10 1C14.9707 1 19 5.02926 19 10C19 14.9707 14.9707 19 10 19C5.02926 19 1 14.9707 1 10C1 5.02926 5.02926 1 10 1ZM13.1046 13.6685C13.2701 13.1606 14.0457 8.09865 14.1416 7.10122C14.1705 6.79913 14.075 6.59839 13.888 6.50878C13.6618 6.4 13.3269 6.45439 12.9383 6.59448C12.4053 6.78661 5.59196 9.67952 5.1983 9.847C4.825 10.0055 4.47204 10.1784 4.47204 10.4289C4.47204 10.605 4.57652 10.704 4.86452 10.8069C5.16426 10.9137 5.91909 11.1426 6.36478 11.2655C6.79404 11.384 7.28278 11.2811 7.5567 11.1109C7.84704 10.9305 11.1978 8.68835 11.4384 8.49191C11.6787 8.29548 11.8704 8.54709 11.674 8.74391C11.4776 8.94035 9.17748 11.1727 8.87422 11.4819C8.506 11.8571 8.76739 12.2461 9.0143 12.4018C9.29644 12.5795 11.3253 13.9404 11.631 14.1588C11.9366 14.3771 12.2465 14.4761 12.5302 14.4761C12.8139 14.4761 12.9633 14.1024 13.1046 13.6685Z" fill="url(#paint0_linear_4248_7674)"/>
<defs>
<linearGradient id="paint0_linear_4248_7674" x1="10" y1="1" x2="10" y2="19" gradientUnits="userSpaceOnUse">
<stop stop-color="white"/>
<stop offset="0.5625" stop-color="#BEBEBE"/>
<stop offset="1" stop-color="#5E5E5E"/>
</linearGradient>
</defs>
</svg>
